<svg xmlns="http://www.w3.org/2000/svg" viewBox="0 0 2080 2048"><path
        fill="#72d4d1"
        d="M694 1350q-17-30-30-62c-75-211-3-469 161-618a633 633 0 0 1 456-157l-83 18c-345 98-471 505-274 797a476 476 0 0 0 584 188c98-39 178-112 242-194-13 39-36 78-60 111-27 38-62 75-97 105q-40 33-82 62c42 0 89-3 129-20 15-6 29-18 44-23 41-13 83 9 131-7 38-12 58-47 90-64 56-29 88 26 45 60-23 18-76 22-107 33-101 34-183 73-290 97-294 66-552 68-829-61-10-5-60-37-68-25-11 18 45 42 57 47 26 9 82 17 86 51 4 42-39 44-68 30-71-32-120-100-178-148-35-29-72-16-106-42-35-26-37-62-52-98-20-48-59-68-82-113-21-43-24-93-42-138-4-8-17-43-29-36-18 38 23 73 19 113-6 45-61 44-76 9s4-84 6-121c7-102-41-313-74-413-14-44-53-101-55-142-6-87 106-108 114-5 5 57 0 99 11 159 22 112 68 237 114 341 21 48 60 133 94 171 8 8 19 19 18 0-3-29-27-85-36-117-53-201-48-413-104-613-14-53-69-170 11-198 67-24 93 45 90 100-3 50-13 89-13 142 3 237 115 635 320 774 3 2 11 9 13 7M323 349c-33 2-2 34 3 43 3 8 10 40 17 38 18-16 9-83-20-81M154 605c10-16-4-75-28-67-18 6 7 29 11 36 3 5 11 36 17 31m80 617c1 14-18 34 4 38l6-4c1-12 1-26-10-34m1661 293c11-6 53 4 52-14-1-19-50-6-52 14m-637-779c267-1 438 287 332 527a364 364 0 0 1-649 40 374 374 0 0 1 317-567m-10 217c-118 15-170 164-96 254 65 80 189 78 248-6 82-117-11-265-152-248m535 208c108-415-328-764-702-534a477 477 0 0 0-220 353l41-85c160-255 542-282 699-9a426 426 0 0 1-189 602l-49 19a487 487 0 0 0 420-346m179 144c43-7 72 37 48 73-16 24-77 54-105 58-36 6-23-19-14-40 11-27 39-85 71-91m-34 62c13-5 18-18 33-23 8-2 38-2 26-20-18-27-62 20-59 43m-99 122c-4 4-16 11-22 14-10 4-57 21-61 8q-2-6 2-13c4-8 40-52 47-57 36-23 69 16 34 48m-29-24c10 1 38-14 19-20-12-3-20 9-19 20M266 1358c9 9 16 28 18 41 6 65-77 44-50-25 3-7 13-26 21-24zm5 44c1-10 0-23-10-30q-4 15 3 29z"
    /><path
        fill="#2a7a78"
        d="M323 349c29-2 38 65 20 82-7 1-14-31-17-39-5-9-36-41-3-43M126 538c-18 6 7 29 11 36 3 5 11 36 17 31 10-16-4-75-28-67m1821 963c-1-19-50-6-52 14 11-6 53 4 52-14M238 1260l6-4c1-12 1-26-10-34 1 14-18 34 4 38m1723 84c8-2 38-2 26-20-18-27-62 20-59 43 13-5 18-18 33-23m-142 101c-12-3-20 9-19 20 10 1 38-14 19-20m-1558-73q-4 15 3 29l7 1c1-10 0-23-10-30"
    /></svg>
