<?xml version="1.0" encoding="UTF-8" ?>
<svg
    id="Warstwa_1"
    data-name="Warstwa 1"
    xmlns="http://www.w3.org/2000/svg"
    xmlns:xlink="http://www.w3.org/1999/xlink"
    viewBox="0 0 2080 1250"
>
    <defs>
    <style>
    .cls-1 {
    fill: #fff;
    }
    .cls-2 {
    fill: #6b54b8;
    }
    </style>
    </defs>
  <path
        class="cls-2"
        d="M809.99,977.99c-7.61-16.57-17.3-32.22-23.48-49.5-60.36-168.68-3.01-375.79,128.54-494.44,99.86-90.06,230.69-131.82,364.94-126.03l-66.42,14.55c-276.38,78.12-376.69,404.36-219.2,638.06,105.1,155.96,289.02,222.18,467.61,150.34,78.25-31.48,142.33-89.73,194.01-154.97-11.05,30.94-29.09,61.86-48.35,88.63-21.8,30.31-49.22,60.17-77.6,84.4-20.89,17.84-43.72,33.06-66.03,48.95,33.88.33,71.86-2.1,103.34-15.63,11.92-5.12,23.49-14.7,35.54-18.46,32.63-10.18,66.52,7.42,104.68-5.32,30.88-10.31,46.55-37.8,72.56-51.44,44.18-23.16,70.22,20.37,35.7,47.7-18.37,14.54-60.59,18.21-85.37,26.63-80.78,27.45-146.54,58.26-232.44,77.56-235.62,52.95-442.11,54.2-663.37-48.67-8.06-3.75-48.3-29.71-54.39-20.08-9.18,14.51,35.97,33.72,45.25,37.23,20.8,7.86,65.68,13.83,68.55,41.48,3.46,33.38-30.61,34.94-54.14,24.12-57.03-26.24-96.24-80.76-142.87-119.13-27.96-23.01-57.27-12.15-84.87-33.13-27.38-20.81-29.17-49.62-41.24-78.76-15.76-38.04-47.19-54.65-65.32-90.68-17.28-34.34-19.9-74.39-34.09-109.91-2.73-6.83-13.77-35.02-23.27-29.19-13.87,30.35,18.95,58.47,15.25,90.19-4.29,36.8-48.58,35.75-60.54,7.56-12.03-28.36,3.12-67.16,5.02-97.05,5.17-81.49-33.4-250.35-59.45-330.51-11.35-34.92-42.39-80.45-44.5-113.5-4.46-69.73,85.01-86.49,91.94-3.94,3.83,45.72-.48,79.41,8.66,127.34,17.07,89.45,54.02,189.74,91.02,272.98,17.17,38.63,47.97,105.94,75.56,136.44,5.92,6.54,15.27,15.15,13.93.16-2.04-22.86-21.77-67.78-28.57-93.52-42.5-160.84-38.45-330.41-83.14-490.86-11.76-42.23-55.05-136,8.62-158.52,53.8-19.03,74.44,36.33,71.93,79.93-2.3,39.98-10.38,71.14-9.89,113.94,2.15,189.5,91.91,508.06,256.16,619.83,1.87,1.27,8.14,6.86,9.74,5.24ZM513.31,176.59c-26.28,1.42-1.78,27.35,2.16,34.94,2.93,5.66,7.96,31.65,13.5,30.46,14.78-12.84,7.8-66.66-15.66-65.4ZM377.98,381.99c7.69-13.25-3.43-60.21-22.64-53.72-13.96,4.71,5.81,22.75,9.05,28.34,2.66,4.59,8.73,28.88,13.59,25.38ZM442.02,876c.52,11-14.54,26.67,2.95,30.14l4.72-3.44c1.32-9.29.81-20.9-7.67-26.7ZM1772,1109.98c8.7-4.25,42.56,3.14,41.48-11-1.15-14.9-39.9-4.85-41.48,11ZM1261.64,486.46c213.8-.82,350.69,230.21,266.07,422.25-96.84,219.79-395.32,238.3-519.33,31.9-119.58-199.03,21.32-453.26,253.26-454.15ZM1253.51,660.51c-94.15,11.8-135.8,131.22-76.54,203.51,51.89,63.3,151.04,62.23,198.65-5.4,65.57-93.13-8.65-212.34-122.12-198.12ZM1681.84,826.84c86.9-332.03-262.13-611.45-561.69-427.69-98.01,60.12-164.55,168.29-176.14,282.83l33.14-67.83c127.68-204.48,433.67-225.84,559.18-7.5,100.22,174.34,32.76,398.92-150.99,481.7l-39.34,15.63c153.28-15.12,296.41-126.49,335.83-277.14ZM1825.47,942.49c34.53-5.96,57.48,29.16,38.19,58.18-12.64,19.01-61.21,43.09-83.57,46.44-28.97,4.34-18.88-15.32-11.81-31.82,9.44-22.03,31.49-68.36,57.19-72.8ZM1798.01,991.99c10.64-4.26,14.8-14.77,26.54-18.44,6.82-2.13,30.6-2.17,21.26-16.27-14.48-21.86-49.87,16.15-47.8,34.71ZM1719.32,1089.31c-3.44,3.18-13.41,9.01-17.94,11.07-7.78,3.55-45.3,17.33-49.18,6.34-1.25-3.93.12-6.5,1.65-9.89,3.09-6.88,31.87-41.57,38.24-45.74,28.79-18.84,54.62,12.85,27.22,38.22ZM1696.01,1069.99c7.76.71,30.14-11.39,14.54-15.69-9.21-2.54-15.51,7.45-14.54,15.69ZM467.28,984.72c7.23,7.17,13.44,22.46,14.49,32.49,5.44,52.01-61.52,35.09-39.51-19.95,2.05-5.14,10-20.78,16.31-19.02,2.55,2.29,6.41,4.19,8.71,6.47ZM471.99,1020.01c.71-8.5-.1-18.73-7.97-24.01-1.67,8.66-2.11,14.61,1.81,22.81l6.16,1.2Z"
    />
  <path
        class="cls-1"
        d="M513.31,176.59c23.46-1.27,30.45,52.55,15.66,65.4-5.54,1.2-10.57-24.8-13.5-30.46-3.94-7.59-28.45-33.52-2.16-34.94ZM355.34,328.27c-13.96,4.71,5.81,22.75,9.05,28.34,2.66,4.59,8.73,28.88,13.59,25.38,7.69-13.25-3.43-60.21-22.64-53.72ZM1813.48,1098.98c-1.15-14.9-39.9-4.85-41.48,11,8.7-4.25,42.56,3.14,41.48-11ZM444.97,906.14l4.72-3.44c1.32-9.29.81-20.9-7.67-26.7.52,11-14.54,26.67,2.95,30.14ZM1824.55,973.55c6.82-2.13,30.6-2.17,21.26-16.27-14.48-21.86-49.87,16.15-47.8,34.71,10.64-4.26,14.8-14.77,26.54-18.44ZM1710.55,1054.3c-9.21-2.54-15.51,7.45-14.54,15.69,7.76.71,30.14-11.39,14.54-15.69ZM464.02,996c-1.67,8.66-2.11,14.61,1.81,22.81l6.16,1.2c.71-8.5-.1-18.73-7.97-24.01Z"
    />
</svg>
