<?xml version="1.0" encoding="UTF-8" standalone="no"?>
<!DOCTYPE svg PUBLIC "-//W3C//DTD SVG 1.1//EN"
 "http://www.w3.org/Graphics/SVG/1.1/DTD/svg11.dtd">
<!-- Generated by graphviz version 3.0.0 (20221109.1736)
 -->
<!-- Pages: 1 -->
<svg width="1401pt" height="536pt"
 viewBox="0.00 0.00 1400.50 536.18" xmlns="http://www.w3.org/2000/svg" xmlns:xlink="http://www.w3.org/1999/xlink">
<g id="graph0" class="graph" transform="scale(1 1) rotate(0) translate(36 500.18)">
<polygon fill="white" stroke="transparent" points="-36,36 -36,-500.18 1364.5,-500.18 1364.5,36 -36,36"/>
<!-- setup -->
<g id="node1" class="node">
<title>setup</title>
<polygon fill="none" stroke="black" points="209.5,-123 155.5,-123 155.5,-119 151.5,-119 151.5,-115 155.5,-115 155.5,-95 151.5,-95 151.5,-91 155.5,-91 155.5,-87 209.5,-87 209.5,-123"/>
<polyline fill="none" stroke="black" points="155.5,-119 159.5,-119 159.5,-115 155.5,-115 "/>
<polyline fill="none" stroke="black" points="155.5,-95 159.5,-95 159.5,-91 155.5,-91 "/>
<text text-anchor="middle" x="182.5" y="-101.3" font-family="Times,serif" font-size="14.00">setup</text>
</g>
<!-- internal -->
<g id="node2" class="node">
<title>internal</title>
<polygon fill="none" stroke="black" points="818.35,-23.56 740.5,-36 662.65,-23.56 692.38,-3.44 788.62,-3.44 818.35,-23.56"/>
<text text-anchor="middle" x="740.5" y="-14.3" font-family="Times,serif" font-size="14.00">net:internal</text>
</g>
<!-- setup&#45;&gt;internal -->
<g id="edge1" class="edge">
<title>setup&#45;&gt;internal</title>
<path fill="none" stroke="black" d="M209.54,-101.34C245.52,-97.22 310.72,-87.75 363.5,-69 376.8,-64.27 377.93,-57.9 391.5,-54 503.67,-21.72 537.78,-51.22 653.5,-36 663.91,-34.63 674.94,-32.79 685.54,-30.81"/>
<polygon fill="black" stroke="black" points="686.36,-34.22 695.52,-28.9 685.04,-27.34 686.36,-34.22"/>
</g>
<!-- keys&#45;data -->
<g id="node3" class="node">
<title>keys&#45;data</title>
<path fill="none" stroke="black" d="M81,-32.73C81,-34.53 62.85,-36 40.5,-36 18.15,-36 0,-34.53 0,-32.73 0,-32.73 0,-3.27 0,-3.27 0,-1.47 18.15,0 40.5,0 62.85,0 81,-1.47 81,-3.27 81,-3.27 81,-32.73 81,-32.73"/>
<path fill="none" stroke="black" d="M81,-32.73C81,-30.92 62.85,-29.45 40.5,-29.45 18.15,-29.45 0,-30.92 0,-32.73"/>
<text text-anchor="middle" x="40.5" y="-14.3" font-family="Times,serif" font-size="14.00">keys&#45;data</text>
</g>
<!-- setup&#45;&gt;keys&#45;data -->
<g id="edge2" class="edge">
<title>setup&#45;&gt;keys&#45;data</title>
<path fill="none" stroke="black" stroke-dasharray="5,2" d="M147.76,-81.41C134.08,-72.67 118.16,-62.7 103.5,-54 95.84,-49.45 87.57,-44.73 79.61,-40.27"/>
<polygon fill="black" stroke="black" points="146.09,-84.5 156.4,-86.95 149.87,-78.61 146.09,-84.5"/>
<polygon fill="black" stroke="black" points="81.26,-37.19 70.82,-35.39 77.86,-43.31 81.26,-37.19"/>
<text text-anchor="middle" x="144.5" y="-57.8" font-family="Times,serif" font-size="14.00">/keys</text>
</g>
<!-- ${SETUP_OUTPUT_DIR -->
<g id="node4" class="node">
<title>${SETUP_OUTPUT_DIR</title>
<path fill="none" stroke="black" d="M265.5,-32.73C265.5,-34.53 228.3,-36 182.5,-36 136.7,-36 99.5,-34.53 99.5,-32.73 99.5,-32.73 99.5,-3.27 99.5,-3.27 99.5,-1.47 136.7,0 182.5,0 228.3,0 265.5,-1.47 265.5,-3.27 265.5,-3.27 265.5,-32.73 265.5,-32.73"/>
<path fill="none" stroke="black" d="M265.5,-32.73C265.5,-30.92 228.3,-29.45 182.5,-29.45 136.7,-29.45 99.5,-30.92 99.5,-32.73"/>
<text text-anchor="middle" x="182.5" y="-14.3" font-family="Times,serif" font-size="14.00">${SETUP_OUTPUT_DIR</text>
</g>
<!-- setup&#45;&gt;${SETUP_OUTPUT_DIR -->
<g id="edge3" class="edge">
<title>setup&#45;&gt;${SETUP_OUTPUT_DIR</title>
<path fill="none" stroke="black" stroke-dasharray="5,2" d="M182.5,-86.8C182.5,-75.16 182.5,-59.55 182.5,-46.24"/>
<polygon fill="black" stroke="black" points="186,-46.18 182.5,-36.18 179,-46.18 186,-46.18"/>
<text text-anchor="middle" x="190" y="-57.8" font-family="Times,serif" font-size="14.00">&#45;.}</text>
</g>
<!-- cosmos&#45;emulator -->
<g id="node5" class="node">
<title>cosmos&#45;emulator</title>
<polygon fill="none" stroke="black" points="589,-123 456,-123 456,-119 452,-119 452,-115 456,-115 456,-95 452,-95 452,-91 456,-91 456,-87 589,-87 589,-123"/>
<polyline fill="none" stroke="black" points="456,-119 460,-119 460,-115 456,-115 "/>
<polyline fill="none" stroke="black" points="456,-95 460,-95 460,-91 456,-91 "/>
<text text-anchor="middle" x="522.5" y="-101.3" font-family="Times,serif" font-size="14.00">cosmos&#45;emulator</text>
</g>
<!-- cosmos&#45;emulator&#45;&gt;internal -->
<g id="edge4" class="edge">
<title>cosmos&#45;emulator&#45;&gt;internal</title>
<path fill="none" stroke="black" d="M566.35,-86.9C605.27,-71.73 661.7,-49.73 699.67,-34.92"/>
<polygon fill="black" stroke="black" points="701.34,-38.02 709.39,-31.13 698.8,-31.5 701.34,-38.02"/>
</g>
<!-- cosmos&#45;data -->
<g id="node6" class="node">
<title>cosmos&#45;data</title>
<path fill="none" stroke="black" d="M383.5,-32.73C383.5,-34.53 361.09,-36 333.5,-36 305.91,-36 283.5,-34.53 283.5,-32.73 283.5,-32.73 283.5,-3.27 283.5,-3.27 283.5,-1.47 305.91,0 333.5,0 361.09,0 383.5,-1.47 383.5,-3.27 383.5,-3.27 383.5,-32.73 383.5,-32.73"/>
<path fill="none" stroke="black" d="M383.5,-32.73C383.5,-30.92 361.09,-29.45 333.5,-29.45 305.91,-29.45 283.5,-30.92 283.5,-32.73"/>
<text text-anchor="middle" x="333.5" y="-14.3" font-family="Times,serif" font-size="14.00">cosmos&#45;data</text>
</g>
<!-- cosmos&#45;emulator&#45;&gt;cosmos&#45;data -->
<g id="edge5" class="edge">
<title>cosmos&#45;emulator&#45;&gt;cosmos&#45;data</title>
<path fill="none" stroke="black" stroke-dasharray="5,2" d="M474.94,-82.61C445.72,-69.47 408.49,-52.72 379.55,-39.71"/>
<polygon fill="black" stroke="black" points="473.7,-85.89 484.25,-86.8 476.57,-79.51 473.7,-85.89"/>
<polygon fill="black" stroke="black" points="380.64,-36.36 370.08,-35.45 377.77,-42.75 380.64,-36.36"/>
<text text-anchor="middle" x="509.5" y="-57.8" font-family="Times,serif" font-size="14.00">/tmp/cosmos/appdata</text>
</g>
<!-- cosmos&#45;init -->
<g id="node7" class="node">
<title>cosmos&#45;init</title>
<polygon fill="none" stroke="black" points="700,-123 607,-123 607,-119 603,-119 603,-115 607,-115 607,-95 603,-95 603,-91 607,-91 607,-87 700,-87 700,-123"/>
<polyline fill="none" stroke="black" points="607,-119 611,-119 611,-115 607,-115 "/>
<polyline fill="none" stroke="black" points="607,-95 611,-95 611,-91 607,-91 "/>
<text text-anchor="middle" x="653.5" y="-101.3" font-family="Times,serif" font-size="14.00">cosmos&#45;init</text>
</g>
<!-- cosmos&#45;init&#45;&gt;internal -->
<g id="edge6" class="edge">
<title>cosmos&#45;init&#45;&gt;internal</title>
<path fill="none" stroke="black" d="M671.11,-86.8C684.72,-73.5 703.66,-55 718.31,-40.68"/>
<polygon fill="black" stroke="black" points="720.82,-43.12 725.53,-33.63 715.93,-38.11 720.82,-43.12"/>
</g>
<!-- cosmos -->
<g id="node8" class="node">
<title>cosmos</title>
<ellipse fill="none" stroke="black" cx="602.5" cy="-18" rx="42.49" ry="18"/>
<text text-anchor="middle" x="602.5" y="-14.3" font-family="Times,serif" font-size="14.00">cosmos</text>
</g>
<!-- cosmos&#45;init&#45;&gt;cosmos -->
<g id="edge7" class="edge">
<title>cosmos&#45;init&#45;&gt;cosmos</title>
<path fill="none" stroke="black" stroke-dasharray="1,5" d="M643.18,-86.8C635.9,-74.66 626.01,-58.19 617.81,-44.52"/>
<polygon fill="black" stroke="black" points="620.6,-42.37 612.46,-35.6 614.6,-45.97 620.6,-42.37"/>
</g>
<!-- postgres -->
<g id="node9" class="node">
<title>postgres</title>
<polygon fill="none" stroke="black" points="1121.5,-123 1049.5,-123 1049.5,-119 1045.5,-119 1045.5,-115 1049.5,-115 1049.5,-95 1045.5,-95 1045.5,-91 1049.5,-91 1049.5,-87 1121.5,-87 1121.5,-123"/>
<polyline fill="none" stroke="black" points="1049.5,-119 1053.5,-119 1053.5,-115 1049.5,-115 "/>
<polyline fill="none" stroke="black" points="1049.5,-95 1053.5,-95 1053.5,-91 1049.5,-91 "/>
<text text-anchor="middle" x="1085.5" y="-101.3" font-family="Times,serif" font-size="14.00">postgres</text>
</g>
<!-- postgres&#45;&gt;internal -->
<g id="edge8" class="edge">
<title>postgres&#45;&gt;internal</title>
<path fill="none" stroke="black" d="M1072.67,-86.97C1062.99,-75.53 1048.66,-61.25 1032.5,-54 990.78,-35.27 872.78,-42.39 827.5,-36 817.22,-34.55 806.32,-32.68 795.84,-30.72"/>
<polygon fill="black" stroke="black" points="796.43,-27.27 785.95,-28.82 795.11,-34.14 796.43,-27.27"/>
</g>
<!-- postgres&#45;data -->
<g id="node10" class="node">
<title>postgres&#45;data</title>
<path fill="none" stroke="black" d="M1280,-32.73C1280,-34.53 1256.02,-36 1226.5,-36 1196.98,-36 1173,-34.53 1173,-32.73 1173,-32.73 1173,-3.27 1173,-3.27 1173,-1.47 1196.98,0 1226.5,0 1256.02,0 1280,-1.47 1280,-3.27 1280,-3.27 1280,-32.73 1280,-32.73"/>
<path fill="none" stroke="black" d="M1280,-32.73C1280,-30.92 1256.02,-29.45 1226.5,-29.45 1196.98,-29.45 1173,-30.92 1173,-32.73"/>
<text text-anchor="middle" x="1226.5" y="-14.3" font-family="Times,serif" font-size="14.00">postgres&#45;data</text>
</g>
<!-- postgres&#45;&gt;postgres&#45;data -->
<g id="edge9" class="edge">
<title>postgres&#45;&gt;postgres&#45;data</title>
<path fill="none" stroke="black" stroke-dasharray="5,2" d="M1128.41,-82.05C1136.17,-77.85 1144.13,-73.39 1151.5,-69 1165.59,-60.6 1180.71,-50.69 1193.66,-41.93"/>
<polygon fill="black" stroke="black" points="1126.61,-79.04 1119.44,-86.84 1129.91,-85.22 1126.61,-79.04"/>
<polygon fill="black" stroke="black" points="1195.95,-44.6 1202.24,-36.07 1192.01,-38.82 1195.95,-44.6"/>
<text text-anchor="middle" x="1251.5" y="-57.8" font-family="Times,serif" font-size="14.00">/var/lib/postgresql/data</text>
</g>
<!-- keycloak -->
<g id="node11" class="node">
<title>keycloak</title>
<polygon fill="none" stroke="black" points="993,-123 916,-123 916,-119 912,-119 912,-115 916,-115 916,-95 912,-95 912,-91 916,-91 916,-87 993,-87 993,-123"/>
<polyline fill="none" stroke="black" points="916,-119 920,-119 920,-115 916,-115 "/>
<polyline fill="none" stroke="black" points="916,-95 920,-95 920,-91 916,-91 "/>
<text text-anchor="middle" x="954.5" y="-101.3" font-family="Times,serif" font-size="14.00">keycloak</text>
</g>
<!-- keycloak&#45;&gt;internal -->
<g id="edge10" class="edge">
<title>keycloak&#45;&gt;internal</title>
<path fill="none" stroke="black" d="M944.88,-86.53C937.89,-75.49 927.41,-61.87 914.5,-54 913.22,-53.22 848.69,-40.35 798.59,-30.45"/>
<polygon fill="black" stroke="black" points="798.96,-26.95 788.47,-28.45 797.6,-33.82 798.96,-26.95"/>
</g>
<!-- keycloak&#45;data -->
<g id="node12" class="node">
<title>keycloak&#45;data</title>
<path fill="none" stroke="black" d="M1135,-32.73C1135,-34.53 1110.12,-36 1079.5,-36 1048.88,-36 1024,-34.53 1024,-32.73 1024,-32.73 1024,-3.27 1024,-3.27 1024,-1.47 1048.88,0 1079.5,0 1110.12,0 1135,-1.47 1135,-3.27 1135,-3.27 1135,-32.73 1135,-32.73"/>
<path fill="none" stroke="black" d="M1135,-32.73C1135,-30.92 1110.12,-29.45 1079.5,-29.45 1048.88,-29.45 1024,-30.92 1024,-32.73"/>
<text text-anchor="middle" x="1079.5" y="-14.3" font-family="Times,serif" font-size="14.00">keycloak&#45;data</text>
</g>
<!-- keycloak&#45;&gt;keycloak&#45;data -->
<g id="edge11" class="edge">
<title>keycloak&#45;&gt;keycloak&#45;data</title>
<path fill="none" stroke="black" stroke-dasharray="5,2" d="M988.33,-80.99C1006.19,-68.85 1028.02,-54 1045.85,-41.88"/>
<polygon fill="black" stroke="black" points="986.1,-78.28 979.8,-86.8 990.03,-84.07 986.1,-78.28"/>
<polygon fill="black" stroke="black" points="1047.94,-44.69 1054.24,-36.18 1044,-38.9 1047.94,-44.69"/>
<text text-anchor="middle" x="1085.5" y="-57.8" font-family="Times,serif" font-size="14.00">/opt/keycloak/data</text>
</g>
<!-- 0.0.0.08001 -->
<g id="node13" class="node">
<title>0.0.0.08001</title>
<ellipse fill="none" stroke="black" cx="923.5" cy="-233.79" rx="59.59" ry="59.59"/>
<text text-anchor="middle" x="923.5" y="-230.09" font-family="Times,serif" font-size="14.00">0.0.0.0:8001</text>
</g>
<!-- 0.0.0.08001&#45;&gt;keycloak -->
<g id="edge12" class="edge">
<title>0.0.0.08001&#45;&gt;keycloak</title>
<path fill="none" stroke="black" d="M934.36,-174.75C936.79,-163.49 939.54,-151.83 942.5,-141 943.22,-138.36 944.04,-135.63 944.89,-132.91"/>
<polygon fill="black" stroke="black" points="948.25,-133.91 948.08,-123.31 941.61,-131.7 948.25,-133.91"/>
<text text-anchor="middle" x="958" y="-144.8" font-family="Times,serif" font-size="14.00">8080</text>
</g>
<!-- azurite -->
<g id="node14" class="node">
<title>azurite</title>
<polygon fill="none" stroke="black" points="898,-123 833,-123 833,-119 829,-119 829,-115 833,-115 833,-95 829,-95 829,-91 833,-91 833,-87 898,-87 898,-123"/>
<polyline fill="none" stroke="black" points="833,-119 837,-119 837,-115 833,-115 "/>
<polyline fill="none" stroke="black" points="833,-95 837,-95 837,-91 833,-91 "/>
<text text-anchor="middle" x="865.5" y="-101.3" font-family="Times,serif" font-size="14.00">azurite</text>
</g>
<!-- azurite&#45;&gt;internal -->
<g id="edge13" class="edge">
<title>azurite&#45;&gt;internal</title>
<path fill="none" stroke="black" d="M852.12,-86.59C843.4,-76.13 831.31,-63.13 818.5,-54 807.91,-46.46 795.44,-39.98 783.61,-34.72"/>
<polygon fill="black" stroke="black" points="784.88,-31.46 774.31,-30.76 782.14,-37.9 784.88,-31.46"/>
</g>
<!-- azurite&#45;data -->
<g id="node15" class="node">
<title>azurite&#45;data</title>
<path fill="none" stroke="black" d="M936.5,-32.73C936.5,-34.53 914.09,-36 886.5,-36 858.91,-36 836.5,-34.53 836.5,-32.73 836.5,-32.73 836.5,-3.27 836.5,-3.27 836.5,-1.47 858.91,0 886.5,0 914.09,0 936.5,-1.47 936.5,-3.27 936.5,-3.27 936.5,-32.73 936.5,-32.73"/>
<path fill="none" stroke="black" d="M936.5,-32.73C936.5,-30.92 914.09,-29.45 886.5,-29.45 858.91,-29.45 836.5,-30.92 836.5,-32.73"/>
<text text-anchor="middle" x="886.5" y="-14.3" font-family="Times,serif" font-size="14.00">azurite&#45;data</text>
</g>
<!-- azurite&#45;&gt;azurite&#45;data -->
<g id="edge14" class="edge">
<title>azurite&#45;&gt;azurite&#45;data</title>
<path fill="none" stroke="black" stroke-dasharray="5,2" d="M872.24,-76.73C874.65,-66.96 877.37,-55.94 879.79,-46.17"/>
<polygon fill="black" stroke="black" points="868.75,-76.25 869.75,-86.8 875.55,-77.93 868.75,-76.25"/>
<polygon fill="black" stroke="black" points="883.26,-46.72 882.26,-36.18 876.46,-45.04 883.26,-46.72"/>
<text text-anchor="middle" x="893.5" y="-57.8" font-family="Times,serif" font-size="14.00">/data</text>
</g>
<!-- provisioning&#45;function -->
<g id="node16" class="node">
<title>provisioning&#45;function</title>
<polygon fill="none" stroke="black" points="509,-251.79 346,-251.79 346,-247.79 342,-247.79 342,-243.79 346,-243.79 346,-223.79 342,-223.79 342,-219.79 346,-219.79 346,-215.79 509,-215.79 509,-251.79"/>
<polyline fill="none" stroke="black" points="346,-247.79 350,-247.79 350,-243.79 346,-243.79 "/>
<polyline fill="none" stroke="black" points="346,-223.79 350,-223.79 350,-219.79 346,-219.79 "/>
<text text-anchor="middle" x="427.5" y="-230.09" font-family="Times,serif" font-size="14.00">provisioning&#45;function</text>
</g>
<!-- provisioning&#45;function&#45;&gt;setup -->
<g id="edge19" class="edge">
<title>provisioning&#45;function&#45;&gt;setup</title>
<path fill="none" stroke="black" stroke-dasharray="1,5" d="M394.46,-215.69C348.66,-191.99 266.19,-149.31 218.75,-124.76"/>
<polygon fill="black" stroke="black" points="220.24,-121.59 209.75,-120.1 217.02,-127.81 220.24,-121.59"/>
</g>
<!-- provisioning&#45;function&#45;&gt;internal -->
<g id="edge15" class="edge">
<title>provisioning&#45;function&#45;&gt;internal</title>
<path fill="none" stroke="black" d="M509.19,-220.85C572.24,-207.47 657.25,-179.7 709.5,-123 728.9,-101.95 736.19,-69.25 738.91,-46.15"/>
<polygon fill="black" stroke="black" points="742.42,-46.27 739.89,-35.98 735.45,-45.6 742.42,-46.27"/>
</g>
<!-- provisioning&#45;function&#45;&gt;keys&#45;data -->
<g id="edge16" class="edge">
<title>provisioning&#45;function&#45;&gt;keys&#45;data</title>
<path fill="none" stroke="black" stroke-dasharray="5,2" d="M345.77,-218.96C277.9,-204.25 181.64,-175.6 112.5,-123 85.46,-102.43 64.81,-68.75 52.7,-45.31"/>
<polygon fill="black" stroke="black" points="55.78,-43.65 48.19,-36.27 49.52,-46.78 55.78,-43.65"/>
<text text-anchor="middle" x="129.5" y="-101.3" font-family="Times,serif" font-size="14.00">/keys</text>
</g>
<!-- provisioning&#45;function&#45;&gt;cosmos&#45;init -->
<g id="edge18" class="edge">
<title>provisioning&#45;function&#45;&gt;cosmos&#45;init</title>
<path fill="none" stroke="black" stroke-dasharray="1,5" d="M457.98,-215.69C498.45,-192.99 569.96,-152.87 614.37,-127.95"/>
<polygon fill="black" stroke="black" points="616.13,-130.98 623.14,-123.03 612.71,-124.87 616.13,-130.98"/>
</g>
<!-- provisioning&#45;function&#45;&gt;cosmos -->
<g id="edge17" class="edge">
<title>provisioning&#45;function&#45;&gt;cosmos</title>
<path fill="none" stroke="black" stroke-dasharray="1,5" d="M424.86,-215.51C421.34,-185.99 418.55,-125.33 447.5,-87 472.81,-53.49 518.15,-36.2 553.29,-27.47"/>
<polygon fill="black" stroke="black" points="554.42,-30.8 563.36,-25.13 552.83,-23.98 554.42,-30.8"/>
</g>
<!-- server -->
<g id="node17" class="node">
<title>server</title>
<polygon fill="none" stroke="black" points="1060,-251.79 1001,-251.79 1001,-247.79 997,-247.79 997,-243.79 1001,-243.79 1001,-223.79 997,-223.79 997,-219.79 1001,-219.79 1001,-215.79 1060,-215.79 1060,-251.79"/>
<polyline fill="none" stroke="black" points="1001,-247.79 1005,-247.79 1005,-243.79 1001,-243.79 "/>
<polyline fill="none" stroke="black" points="1001,-223.79 1005,-223.79 1005,-219.79 1001,-219.79 "/>
<text text-anchor="middle" x="1030.5" y="-230.09" font-family="Times,serif" font-size="14.00">server</text>
</g>
<!-- server&#45;&gt;internal -->
<g id="edge20" class="edge">
<title>server&#45;&gt;internal</title>
<path fill="none" stroke="black" d="M1031.82,-215.57C1033.15,-186.14 1031.76,-125.62 1002.5,-87 953.57,-22.43 907.23,-50.37 827.5,-36 817.95,-34.28 807.82,-32.37 797.98,-30.48"/>
<polygon fill="black" stroke="black" points="798.35,-26.98 787.86,-28.52 797.01,-33.86 798.35,-26.98"/>
</g>
<!-- server&#45;&gt;postgres -->
<g id="edge22" class="edge">
<title>server&#45;&gt;postgres</title>
<path fill="none" stroke="black" stroke-dasharray="1,5" d="M1037.92,-215.69C1047.18,-194.33 1063.14,-157.54 1074,-132.52"/>
<polygon fill="black" stroke="black" points="1077.26,-133.8 1078.02,-123.23 1070.83,-131.02 1077.26,-133.8"/>
</g>
<!-- server&#45;&gt;keycloak -->
<g id="edge23" class="edge">
<title>server&#45;&gt;keycloak</title>
<path fill="none" stroke="black" stroke-dasharray="1,5" d="M1020.25,-215.69C1007.33,-194.14 985,-156.89 970,-131.85"/>
<polygon fill="black" stroke="black" points="972.97,-130.01 964.83,-123.23 966.97,-133.61 972.97,-130.01"/>
</g>
<!-- 0.0.0.08002 -->
<g id="node18" class="node">
<title>0.0.0.08002</title>
<ellipse fill="none" stroke="black" cx="1030.5" cy="-404.38" rx="59.59" ry="59.59"/>
<text text-anchor="middle" x="1030.5" y="-400.68" font-family="Times,serif" font-size="14.00">0.0.0.0:8002</text>
</g>
<!-- 0.0.0.08002&#45;&gt;server -->
<g id="edge21" class="edge">
<title>0.0.0.08002&#45;&gt;server</title>
<path fill="none" stroke="black" d="M1030.5,-344.42C1030.5,-316.35 1030.5,-284.15 1030.5,-261.94"/>
<polygon fill="black" stroke="black" points="1034,-261.91 1030.5,-251.91 1027,-261.91 1034,-261.91"/>
<text text-anchor="middle" x="1038.5" y="-315.39" font-family="Times,serif" font-size="14.00">80</text>
</g>
<!-- telemetry&#45;worker -->
<g id="node19" class="node">
<title>telemetry&#45;worker</title>
<polygon fill="none" stroke="black" points="836,-251.79 699,-251.79 699,-247.79 695,-247.79 695,-243.79 699,-243.79 699,-223.79 695,-223.79 695,-219.79 699,-219.79 699,-215.79 836,-215.79 836,-251.79"/>
<polyline fill="none" stroke="black" points="699,-247.79 703,-247.79 703,-243.79 699,-243.79 "/>
<polyline fill="none" stroke="black" points="699,-223.79 703,-223.79 703,-219.79 699,-219.79 "/>
<text text-anchor="middle" x="767.5" y="-230.09" font-family="Times,serif" font-size="14.00">telemetry&#45;worker</text>
</g>
<!-- telemetry&#45;worker&#45;&gt;internal -->
<g id="edge24" class="edge">
<title>telemetry&#45;worker&#45;&gt;internal</title>
<path fill="none" stroke="black" d="M772.92,-215.39C780.69,-187.7 792.79,-132.12 780.5,-87 776.16,-71.05 767.02,-55.02 758.57,-42.54"/>
<polygon fill="black" stroke="black" points="761.25,-40.27 752.62,-34.12 755.54,-44.31 761.25,-40.27"/>
</g>
<!-- telemetry&#45;worker&#45;&gt;cosmos&#45;init -->
<g id="edge26" class="edge">
<title>telemetry&#45;worker&#45;&gt;cosmos&#45;init</title>
<path fill="none" stroke="black" stroke-dasharray="1,5" d="M752.13,-215.69C732.49,-193.86 698.37,-155.91 675.86,-130.87"/>
<polygon fill="black" stroke="black" points="678.28,-128.33 669,-123.23 673.08,-133.01 678.28,-128.33"/>
</g>
<!-- telemetry&#45;worker&#45;&gt;cosmos -->
<g id="edge25" class="edge">
<title>telemetry&#45;worker&#45;&gt;cosmos</title>
<path fill="none" stroke="black" stroke-dasharray="1,5" d="M764.31,-215.75C758.13,-186.58 742.16,-126.44 709.5,-87 690.99,-64.65 663.17,-47.29 640.53,-35.7"/>
<polygon fill="black" stroke="black" points="642.03,-32.53 631.51,-31.24 638.93,-38.81 642.03,-32.53"/>
</g>
<!-- telemetry&#45;worker&#45;&gt;azurite -->
<g id="edge27" class="edge">
<title>telemetry&#45;worker&#45;&gt;azurite</title>
<path fill="none" stroke="black" stroke-dasharray="1,5" d="M780.72,-215.69C797.52,-193.95 826.67,-156.24 846.02,-131.2"/>
<polygon fill="black" stroke="black" points="848.83,-133.29 852.18,-123.23 843.3,-129.01 848.83,-133.29"/>
</g>
<!-- gateway -->
<g id="node20" class="node">
<title>gateway</title>
<polygon fill="none" stroke="black" points="110,-251.79 37,-251.79 37,-247.79 33,-247.79 33,-243.79 37,-243.79 37,-223.79 33,-223.79 33,-219.79 37,-219.79 37,-215.79 110,-215.79 110,-251.79"/>
<polyline fill="none" stroke="black" points="37,-247.79 41,-247.79 41,-243.79 37,-243.79 "/>
<polyline fill="none" stroke="black" points="37,-223.79 41,-223.79 41,-219.79 37,-219.79 "/>
<text text-anchor="middle" x="73.5" y="-230.09" font-family="Times,serif" font-size="14.00">gateway</text>
</g>
<!-- gateway&#45;&gt;setup -->
<g id="edge31" class="edge">
<title>gateway&#45;&gt;setup</title>
<path fill="none" stroke="black" stroke-dasharray="1,5" d="M88.2,-215.69C106.97,-193.86 139.6,-155.91 161.12,-130.87"/>
<polygon fill="black" stroke="black" points="163.82,-133.1 167.68,-123.23 158.51,-128.54 163.82,-133.1"/>
</g>
<!-- gateway&#45;&gt;internal -->
<g id="edge28" class="edge">
<title>gateway&#45;&gt;internal</title>
<path fill="none" stroke="black" d="M110.03,-216.52C176.26,-187.48 321,-126.11 447.5,-87 491.34,-73.45 613.06,-46.46 685.08,-30.87"/>
<polygon fill="black" stroke="black" points="685.86,-34.28 694.9,-28.74 684.38,-27.43 685.86,-34.28"/>
</g>
<!-- gateway&#45;&gt;keys&#45;data -->
<g id="edge29" class="edge">
<title>gateway&#45;&gt;keys&#45;data</title>
<path fill="none" stroke="black" stroke-dasharray="5,2" d="M67.16,-215.6C59.63,-194.24 47.47,-156.5 42.5,-123 38.67,-97.14 38.53,-67.27 39.13,-46.19"/>
<polygon fill="black" stroke="black" points="42.64,-46.16 39.5,-36.04 35.64,-45.91 42.64,-46.16"/>
<text text-anchor="middle" x="59.5" y="-101.3" font-family="Times,serif" font-size="14.00">/keys</text>
</g>
<!-- 0.0.0.08000 -->
<g id="node21" class="node">
<title>0.0.0.08000</title>
<ellipse fill="none" stroke="black" cx="73.5" cy="-404.38" rx="59.59" ry="59.59"/>
<text text-anchor="middle" x="73.5" y="-400.68" font-family="Times,serif" font-size="14.00">0.0.0.0:8000</text>
</g>
<!-- 0.0.0.08000&#45;&gt;gateway -->
<g id="edge30" class="edge">
<title>0.0.0.08000&#45;&gt;gateway</title>
<path fill="none" stroke="black" d="M73.5,-344.42C73.5,-316.35 73.5,-284.15 73.5,-261.94"/>
<polygon fill="black" stroke="black" points="77,-261.91 73.5,-251.91 70,-261.91 77,-261.91"/>
<text text-anchor="middle" x="89" y="-315.39" font-family="Times,serif" font-size="14.00">8000</text>
</g>
</g>
</svg>
